# xmcd
#
# Track frame offsets:
#	150
#	18173
#	36364
#	51735
#	66618
#	84785
#	101724
#	118178
#	134677
#	152463
#	169826
#	184762
#	202481
#	219119
#	236493
#	251529
#	269284
#	292597
#
# Disc length: 4109 seconds
#
# Revision: 0
# Processed by: cddbd v1.5.2PL0 Copyright (c) Steve Scherf et al.
# Submitted via: dBpowerAMP V4.0
#
DISCID=0a100b12
DTITLE=Jimmy Young - Heartbreaker
DYEAR=1900
DGENRE=Blues
TTITLE0=Give it Up
TTITLE1=More than my heart could stand
TTITLE2=i can´t believe you called
TTITLE3=heaven was made for angels
TTITLE4=heart Breaker
TTITLE5=You got the power
TTITLE6=face the music
TTITLE7=supernatural thing
TTITLE8=can you find it in your heart
TTITLE9=what is funk?
TTITLE10=beautiful girl
TTITLE11=standing in the rain
TTITLE12=listen to the radio
TTITLE13=living in a dream
TTITLE14=keep it up
TTITLE15=show me the way
TTITLE16=my lady
TTITLE17=BONUS TRACK - waltz up with the funk
EXTD=
EXTT0=
EXTT1=
EXTT2=
EXTT3=
EXTT4=
EXTT5=
EXTT6=
EXTT7=
EXTT8=
EXTT9=
EXTT10=
EXTT11=
EXTT12=
EXTT13=
EXTT14=
EXTT15=
EXTT16=
EXTT17=
PLAYORDER=
